<svg xmlns="http://www.w3.org/2000/svg" version="1.1" id="Layer_1" x="0" y="0" viewBox="0 0 1000 1000" xml:space="preserve"><style>.st0{fill:#e73137;stroke:#fff;stroke-width:13.7606;stroke-miterlimit:10}</style><path class="st0" d="M661.74 218.09c0 61.98-38.51 114.96-92.9 136.33-16.58 6.51-48.31 127.91-48.31 127.91s-40.21-121.03-56.04-126.89c-55.81-20.66-95.58-74.36-95.58-137.36 0-80.87 65.56-146.42 146.42-146.42s146.41 65.56 146.41 146.43z"/><path class="st0" d="M362.29 227.92c53.68 30.99 80.31 90.83 71.62 148.62-2.65 17.61 86.62 105.8 86.62 105.8s-124.92-25.69-137.91-14.91c-45.8 38-112.19 45.6-166.75 14.1-70.03-40.43-94.03-129.98-53.59-200.02s129.97-94.03 200.01-53.59z"/><path class="st0" d="M221.07 492.16c53.68-30.99 118.82-24.13 164.52 12.29 13.93 11.1 134.93-22.12 134.93-22.12s-84.71 95.33-81.87 111.98c10.01 58.66-16.61 119.96-71.16 151.46-70.03 40.43-159.58 16.44-200.02-53.59s-16.44-159.58 53.6-200.02z"/><path class="st0" d="M379.3 746.59c0-61.98 38.51-114.96 92.9-136.33 16.58-6.51 48.31-127.91 48.31-127.91s40.21 121.03 56.04 126.89c55.81 20.66 95.58 74.36 95.58 137.36 0 80.87-65.56 146.42-146.42 146.42S379.3 827.45 379.3 746.59z"/><path class="st0" d="M678.76 736.76c-53.68-30.99-80.31-90.83-71.62-148.62 2.65-17.61-86.62-105.8-86.62-105.8s124.92 25.7 137.91 14.91c45.8-38 112.19-45.6 166.75-14.1 70.03 40.43 94.03 129.98 53.59 200.02-40.43 70.03-129.98 94.03-200.01 53.59z"/><path class="st0" d="M819.98 472.51c-53.68 30.99-118.82 24.13-164.52-12.29-13.93-11.1-134.93 22.12-134.93 22.12s84.71-95.33 81.87-111.98c-1.17-6.87-11-22.72-5.81-27.25 47.36-41.33 51.31-46.01 65.53-117.1.38-1.89 8.28-5.28 11.44-7.1 70.03-40.43 159.58-16.44 200.02 53.59 40.43 70.03 16.43 159.58-53.6 200.01z"/></svg>